<svg width="32" height="32" viewBox="0 0 32 32" fill="none" xmlns="http://www.w3.org/2000/svg">
<path d="M15.7673 3.10836C15.6036 3.11093 15.3414 3.18486 15.0217 3.32799C15.2045 3.36371 15.3588 3.4198 15.4669 3.48977C15.575 3.55975 15.6325 3.64077 15.6327 3.72349C15.6327 3.78114 15.6049 3.83822 15.5509 3.89148C15.4968 3.94474 15.4176 3.99314 15.3178 4.03391C15.2179 4.07467 15.0993 4.10701 14.9688 4.12907C14.8383 4.15113 14.6985 4.16249 14.5572 4.16249C14.284 4.16237 14.0211 4.1198 13.822 4.04343C13.0906 4.57561 12.2844 5.30149 11.5119 6.1283C11.3312 6.32197 11.1544 6.51919 10.9815 6.71986C11.0263 6.71746 11.0714 6.71619 11.1166 6.71605C11.4048 6.71605 11.6811 6.7623 11.8849 6.84461C12.0886 6.92693 12.2031 7.03858 12.2031 7.15499C12.2031 7.21264 12.175 7.26972 12.1204 7.32298C12.0658 7.37624 11.9858 7.42464 11.8849 7.4654C11.784 7.50617 11.6642 7.53851 11.5324 7.56057C11.4006 7.58263 11.2593 7.59399 11.1166 7.59399C10.836 7.59395 10.5662 7.55003 10.3639 7.47143C9.49225 8.58418 8.74869 9.76949 8.30462 10.8257C13.1065 11.7387 18.6141 11.6727 23.67 10.6383C23.6108 10.4857 23.5473 10.3349 23.4794 10.1861C23.3309 10.2133 23.1673 10.2275 23.0014 10.2277C22.7162 10.2277 22.4427 10.1861 22.241 10.112C22.0393 10.0379 21.926 9.93744 21.9259 9.83268C21.9259 9.7279 22.0392 9.62741 22.2409 9.55333C22.4426 9.47924 22.7162 9.43761 23.0014 9.43761C23.0362 9.43772 23.0711 9.43845 23.1057 9.4398C22.4904 8.31543 21.6074 7.10955 20.6139 6.06874C18.9536 4.32918 16.9631 3.08961 15.7674 3.10836H15.7673ZM17.1977 4.34874C17.3347 4.34874 17.4703 4.35868 17.5968 4.37799C17.7233 4.39729 17.8382 4.4256 17.935 4.46127C18.0318 4.49695 18.1086 4.5393 18.161 4.58591C18.2134 4.63252 18.2403 4.68248 18.2402 4.73293C18.2402 4.83478 18.1303 4.93245 17.9348 5.00446C17.7393 5.07647 17.4742 5.11693 17.1977 5.11693C16.9213 5.11694 16.6561 5.07649 16.4606 5.00448C16.265 4.93246 16.1552 4.83478 16.1551 4.73293C16.1551 4.68248 16.182 4.63252 16.2344 4.5859C16.2868 4.53929 16.3636 4.49693 16.4604 4.46126C16.5572 4.42558 16.6722 4.39728 16.7987 4.37797C16.9252 4.35867 17.0608 4.34873 17.1977 4.34874ZM19.0877 6.2583C19.37 6.2583 19.6408 6.30339 19.8404 6.38364C20.04 6.46389 20.1522 6.57274 20.1522 6.68624C20.1522 6.79975 20.0401 6.90862 19.8405 6.98888C19.6408 7.06915 19.3701 7.11424 19.0877 7.11424C18.948 7.11424 18.8095 7.10317 18.6804 7.08167C18.5512 7.06016 18.4338 7.02863 18.335 6.98889C18.2361 6.94915 18.1577 6.90196 18.1042 6.85003C18.0507 6.7981 18.0232 6.74245 18.0232 6.68624C18.0232 6.57273 18.1354 6.46388 18.335 6.38363C18.5347 6.30338 18.8054 6.2583 19.0877 6.2583ZM14.9621 7.61655C15.1034 7.61655 15.2432 7.6279 15.3737 7.64996C15.5042 7.67202 15.6228 7.70436 15.7227 7.74513C15.8225 7.78589 15.9018 7.83429 15.9558 7.88755C16.0098 7.94082 16.0376 7.9979 16.0376 8.05555C16.0376 8.17197 15.9243 8.28361 15.7226 8.36593C15.521 8.44824 15.2474 8.49449 14.9622 8.49449C14.821 8.49449 14.6811 8.48314 14.5506 8.46108C14.4201 8.43903 14.3016 8.4067 14.2017 8.36594C14.1018 8.32518 14.0226 8.27679 13.9686 8.22353C13.9145 8.17028 13.8867 8.1132 13.8867 8.05555C13.8867 7.9979 13.9145 7.94082 13.9685 7.88755C14.0226 7.83429 14.1018 7.78589 14.2016 7.74513C14.3015 7.70436 14.4201 7.67202 14.5506 7.64996C14.6811 7.6279 14.8209 7.61655 14.9622 7.61655H14.9621ZM12.5322 9.92043C12.6764 9.92043 12.8191 9.93036 12.9522 9.94967C13.0854 9.96897 13.2064 9.99727 13.3083 10.0329C13.4102 10.0686 13.491 10.111 13.5461 10.1576C13.6013 10.2042 13.6296 10.2541 13.6296 10.3046C13.6296 10.4064 13.514 10.5041 13.3082 10.5761C13.1024 10.6482 12.8233 10.6886 12.5322 10.6886C12.3881 10.6886 12.2454 10.6787 12.1123 10.6594C11.9791 10.6401 11.8582 10.6118 11.7562 10.5761C11.6543 10.5405 11.5735 10.4981 11.5183 10.4515C11.4632 10.4049 11.4348 10.355 11.4348 10.3046C11.4348 10.2541 11.4632 10.2042 11.5183 10.1576C11.5734 10.1109 11.6543 10.0686 11.7562 10.0329C11.8581 9.99726 11.9791 9.96896 12.1122 9.94966C12.2454 9.93036 12.3881 9.92042 12.5322 9.92043ZM25.9812 11.2494C19.6417 12.9233 12.4023 13.0402 6.39862 11.5582C6.00075 12.0261 5.65362 12.4508 5.45237 12.8676C5.25194 13.2827 5.16419 13.7091 5.23725 14.2816C12.3799 15.904 20.1472 15.5097 27.377 14.2101C27.4608 13.7799 27.3972 13.3641 27.1855 12.8957C26.9544 12.3843 26.5324 11.8277 25.9812 11.2494ZM26.7609 15.4646C25.3754 15.6994 23.9709 15.9004 22.5547 16.0604C23.1789 18.6589 23.9202 21.62 23.6487 24.3304L23.6096 24.7223L23.2279 24.8194C18.8998 25.9218 14.2422 26.7841 9.8625 24.7861L9.58437 24.6592L9.53962 24.3569C9.12225 21.5453 9.9855 18.8409 10.4326 16.249C8.89656 16.1013 7.37231 15.8794 5.86919 15.5732C4.4005 19.1909 3.59606 23.629 3.95669 27.6478C3.33937 28.2894 2.74131 29.1136 3.064 29.6689C3.63206 30.6464 5.74206 30.1371 7.01187 29.7206C12.8162 31.0727 19.5459 30.9309 25.1147 29.8098C26.2684 30.2251 28.8444 31.0003 29.4821 29.9028C29.7896 29.3738 29.2612 28.6007 28.6768 27.9739C29.3153 23.6231 28.0557 19.2707 26.7609 15.4646ZM21.4259 16.1798C18.1561 16.4961 14.8361 16.5813 11.5581 16.3429C11.1228 18.9617 10.359 21.4736 10.6251 23.885C14.4114 25.4861 18.5081 24.8333 22.5491 23.8262C22.6907 21.4461 22.0234 18.6855 21.426 16.1798H21.4259Z" fill="white"/>
</svg>
