<svg width="25" height="23" viewBox="0 0 25 23" fill="none" xmlns="http://www.w3.org/2000/svg">
<rect width="24.1796" height="22.7573" fill="#858585"/>
<g clip-path="url(#clip0_25_22)">
<path d="M15.6752 7.08201H15.6817M8.83025 4.14845H15.3493C17.1494 4.14845 18.6088 5.60778 18.6088 7.40796V13.927C18.6088 15.7271 17.1494 17.1865 15.3493 17.1865H8.83025C7.03007 17.1865 5.57074 15.7271 5.57074 13.927V7.40796C5.57074 5.60778 7.03007 4.14845 8.83025 4.14845ZM14.6974 10.2568C14.7778 10.7993 14.6851 11.3534 14.4325 11.8402C14.1799 12.3271 13.7802 12.7219 13.2903 12.9685C12.8004 13.2151 12.2452 13.3009 11.7037 13.2137C11.1622 13.1266 10.6619 12.8709 10.2741 12.4831C9.88627 12.0953 9.63061 11.595 9.54347 11.0535C9.45633 10.512 9.54216 9.95682 9.78875 9.46691C10.0353 8.97699 10.4301 8.5773 10.917 8.32469C11.4038 8.07208 11.9579 7.97941 12.5004 8.05986C13.0539 8.14193 13.5662 8.3998 13.9618 8.7954C14.3574 9.19101 14.6153 9.70335 14.6974 10.2568Z" stroke="#F5F5F5" stroke-linecap="round" stroke-linejoin="round"/>
</g>
<defs>
<clipPath id="clip0_25_22">
<rect width="15.6456" height="15.6456" fill="white" transform="translate(4.26694 2.84465)"/>
</clipPath>
</defs>
</svg>
