<svg width="37" height="37" viewBox="0 0 37 37" fill="none" xmlns="http://www.w3.org/2000/svg">
<path d="M25.907 3.4687C24.9276 3.51495 23.9113 4.2272 23.45 5.34761V5.38345H23.4141C22.9262 6.67961 22.2394 8.03473 21.4624 9.35864C20.4768 9.28286 19.4885 9.2466 18.5 9.24995C14.8729 9.24995 11.5857 9.75639 9.10552 10.6594C7.86833 11.1104 6.83349 11.6654 6.03452 12.358C5.32921 12.9627 4.8193 13.7616 4.69674 14.6705C4.66205 14.7645 4.63815 14.8608 4.62505 14.9595C4.62043 15.0173 4.62043 15.0809 4.62505 15.1399C4.62505 15.4694 4.62505 15.903 4.66089 16.4407C4.66552 16.4765 4.65627 16.5124 4.66089 16.5494C4.67939 16.8107 4.73374 17.0778 4.76958 17.3795C4.80543 17.664 4.83318 17.9403 4.87827 18.2109C5.11761 19.7741 5.58705 21.6299 6.5398 23.4499C7.24974 24.8269 8.2191 26.0539 9.39458 27.0631C9.43043 27.1001 9.57033 27.2759 9.57496 27.2805C10.7497 28.4541 13.0761 29.6971 16.8015 29.9896C16.9688 30.0043 17.1376 30.0166 17.308 30.0266C18.2711 30.0836 19.2372 30.0712 20.1986 29.9896C20.2841 29.9815 20.3651 29.963 20.4506 29.9549C20.8206 29.9133 21.1606 29.8682 21.4994 29.8092C21.5572 29.8 21.6208 29.7826 21.6797 29.7734C21.7433 29.7595 21.7977 29.7503 21.8601 29.7375C23.1184 29.4893 24.335 29.0634 25.4734 28.4726C25.6584 28.3732 25.8399 28.2876 26.0157 28.1835C26.5221 27.8945 26.9372 27.6413 27.2448 27.425C27.7454 27.0678 28.9699 26.056 30.1701 24.028C31.228 22.2393 32.1762 19.692 32.3392 16.4407C32.375 15.8857 32.375 15.4382 32.375 15.104V14.9225C32.375 14.8867 32.3438 14.8508 32.3392 14.8138V14.7063C32.2039 13.5547 31.3992 12.6193 30.3875 11.9244C29.6648 11.4272 28.7803 11.0109 27.7859 10.6594C28.1478 10.2166 28.5039 9.77373 28.9063 9.35864L29.015 9.24995L28.978 9.21411C29.8325 8.44173 30.2117 7.2982 29.9539 6.39517C29.6833 5.44705 29.0289 4.77873 28.364 4.30005C27.705 3.82136 26.8875 3.42361 25.907 3.4687ZM26.0157 5.7812C26.2053 5.77195 26.6574 5.90839 27.0274 6.17895C27.3974 6.44489 27.6957 6.81952 27.75 7.00914C27.8044 7.19992 27.8853 7.20802 27.461 7.55258L27.3881 7.58727L27.3535 7.62427C23.798 11.2549 21.7387 15.5561 21.1375 18.3913C20.2934 18.4595 19.4031 18.5 18.5 18.5C18.1428 18.5 17.8005 18.4768 17.4525 18.4641C20.3477 15.614 23.8292 10.8941 25.5821 6.2148C25.7948 5.70027 25.8249 5.79045 26.0157 5.7812ZM18.5 11.5625C19.0204 11.5625 19.521 11.5763 20.0182 11.5983C17.9948 14.5433 15.7274 17.0778 14.2716 18.2109C12.5974 17.9796 11.0885 17.6328 9.90102 17.1992C8.83958 16.8107 8.03946 16.3863 7.55152 15.9701C7.06474 15.5561 6.93755 15.2393 6.93755 15.0312V14.9225C6.97339 14.719 7.13643 14.4485 7.55152 14.0912C8.03946 13.6761 8.83958 13.2517 9.90102 12.8632C12.0227 12.0909 15.1041 11.5625 18.5 11.5625ZM26.3406 12.647C27.4968 13.0031 28.4588 13.4101 29.0867 13.838C29.8544 14.3675 30.0625 14.778 30.0625 15.0312V15.104C30.0394 15.3122 29.8868 15.5908 29.4486 15.9712C28.9606 16.3863 28.1605 16.8107 27.0991 17.1992C26.1371 17.546 24.9589 17.8455 23.6673 18.0664C24.1275 16.6257 25.0398 14.6485 26.3406 12.647ZM29.7018 18.5716C29.5977 19.1012 29.511 19.6377 29.3399 20.1985C29.2994 20.3199 29.2717 20.4413 29.2312 20.5592C29.2046 20.6448 29.1549 20.7269 29.1237 20.8125C28.83 21.5802 28.4912 22.2578 28.1478 22.8359C27.1361 24.5471 25.9428 25.5184 25.907 25.5461C25.0861 26.1289 23.7448 27.0493 21.4265 27.4967L21.0299 27.5696C20.1929 27.6977 19.3468 27.758 18.5 27.75C18.13 27.75 17.7913 27.7315 17.4525 27.7141C17.3022 27.7049 17.1634 27.691 17.0189 27.6771C16.4951 27.632 16.0245 27.5788 15.5736 27.4967C15.2163 27.4297 14.8868 27.3695 14.5619 27.2805C14.3399 27.2215 14.1456 27.1626 13.9479 27.099C13.1287 26.8353 12.3504 26.4586 11.6354 25.9797C11.4943 25.8757 11.3637 25.7809 11.2735 25.6907L11.2376 25.6537C11.0434 25.4606 10.7867 25.2571 10.3705 24.7865C9.826 24.1591 9.34208 23.4816 8.92514 22.763C8.24896 21.6246 7.73781 20.396 7.40699 19.1139C7.36739 18.9463 7.33153 18.7778 7.29946 18.6086C7.83596 18.915 8.44646 19.1636 9.10552 19.403C11.5857 20.3072 14.8729 20.8125 18.5 20.8125C22.1272 20.8125 25.4144 20.306 27.8946 19.403C28.5629 19.1602 29.1595 18.878 29.7018 18.5716Z" fill="white"/>
</svg>
