<svg width="19" height="19" viewBox="0 0 19 19" fill="none" xmlns="http://www.w3.org/2000/svg">
<g clip-path="url(#clip0_83_483)">
<path d="M11.9146 3.95835C12.6878 4.10922 13.3984 4.48739 13.9555 5.04447C14.5126 5.60155 14.8908 6.31219 15.0416 7.08544M11.9146 0.791687C13.5211 0.970157 15.0191 1.68958 16.1628 2.83182C17.3065 3.97406 18.0278 5.47124 18.2083 7.07752M17.4166 13.395V15.77C17.4175 15.9905 17.3724 16.2087 17.284 16.4108C17.1957 16.6128 17.0662 16.7941 16.9037 16.9432C16.7412 17.0922 16.5494 17.2057 16.3406 17.2763C16.1317 17.347 15.9104 17.3732 15.6908 17.3534C13.2547 17.0887 10.9147 16.2562 8.85872 14.9229C6.94591 13.7075 5.32419 12.0857 4.10872 10.1729C2.77078 8.10764 1.93816 5.75622 1.6783 3.30919C1.65852 3.09027 1.68454 2.86962 1.7547 2.66131C1.82486 2.45299 1.93763 2.26157 2.08582 2.09922C2.23402 1.93687 2.4144 1.80717 2.61547 1.71835C2.81654 1.62954 3.0339 1.58356 3.25372 1.58335H5.62872C6.01292 1.57957 6.38539 1.71562 6.6767 1.96615C6.968 2.21668 7.15828 2.56458 7.21205 2.94502C7.31229 3.70507 7.4982 4.45135 7.76622 5.1696C7.87273 5.45296 7.89578 5.76091 7.83264 6.05697C7.7695 6.35302 7.62282 6.62478 7.40997 6.84002L6.40455 7.84544C7.53153 9.82741 9.17258 11.4685 11.1546 12.5954L12.16 11.59C12.3752 11.3772 12.647 11.2305 12.943 11.1673C13.2391 11.1042 13.547 11.1273 13.8304 11.2338C14.5486 11.5018 15.2949 11.6877 16.055 11.7879C16.4395 11.8422 16.7907 12.0359 17.0418 12.3322C17.2929 12.6285 17.4263 13.0068 17.4166 13.395Z" stroke="#FC5D1B" stroke-width="1.75" stroke-linecap="round" stroke-linejoin="round"/>
</g>
<defs>
<clipPath id="clip0_83_483">
<rect width="19" height="19" fill="white"/>
</clipPath>
</defs>
</svg>
