<svg width="17" height="16" viewBox="0 0 17 16" fill="none" xmlns="http://www.w3.org/2000/svg">
<path d="M14.771 15.3761L9.16515 9.99446C8.72024 10.3362 8.20859 10.6067 7.63021 10.806C7.05183 11.0053 6.43637 11.105 5.78383 11.105C4.16732 11.105 2.79923 10.5675 1.67954 9.4926C0.559845 8.4177 0 7.10432 0 5.55248C0 4.00063 0.559845 2.68726 1.67954 1.61235C2.79923 0.537451 4.16732 0 5.78383 0C7.40034 0 8.76844 0.537451 9.88813 1.61235C11.0078 2.68726 11.5677 4.00063 11.5677 5.55248C11.5677 6.17891 11.4639 6.76975 11.2562 7.325C11.0486 7.88025 10.7668 8.37143 10.4109 8.79854L16.0168 14.1802L14.771 15.3761ZM5.78383 9.3965C6.89611 9.3965 7.84154 9.02278 8.62013 8.27533C9.39873 7.52788 9.78802 6.62026 9.78802 5.55248C9.78802 4.48469 9.39873 3.57708 8.62013 2.82963C7.84154 2.08218 6.89611 1.70845 5.78383 1.70845C4.67156 1.70845 3.72612 2.08218 2.94753 2.82963C2.16894 3.57708 1.77964 4.48469 1.77964 5.55248C1.77964 6.62026 2.16894 7.52788 2.94753 8.27533C3.72612 9.02278 4.67156 9.3965 5.78383 9.3965Z" fill="white"/>
</svg>
