<svg width="28" height="28" viewBox="0 0 28 28" fill="none" xmlns="http://www.w3.org/2000/svg">
<g clip-path="url(#clip0_121_70)">
<path d="M3.85749 24.787H24.1425C26.592 24.787 27.8225 23.5685 27.8225 21.1545V6.84502C27.8225 4.43102 26.592 3.21252 24.1425 3.21252H3.85749C1.41999 3.21302 0.17749 4.42002 0.17749 6.84502V21.155C0.17749 23.5805 1.41999 24.787 3.85749 24.787ZM2.06449 6.94002C2.06449 5.72102 2.72049 5.10002 3.89249 5.10002H9.06049V9.92852H2.06449V6.94002ZM10.83 9.92852V5.10002H17.123V9.92852H10.83ZM18.8925 9.92852V5.10002H24.1075C25.2675 5.10002 25.9355 5.72102 25.9355 6.94002V9.92852H18.8925ZM10.9125 16.42V11.58H17.205V16.42H10.9125ZM18.8925 16.42V11.58H25.9355V16.42H18.8925ZM9.06049 11.58V16.42H2.06449V11.58H9.06049ZM24.1075 22.9H18.8925V18.0725H25.9355V21.0605C25.9355 22.2795 25.2675 22.9 24.1075 22.9ZM3.89249 22.9005C2.72049 22.9005 2.06449 22.28 2.06449 21.061V18.0725H9.05999V22.901L3.89249 22.9005ZM10.83 18.073H17.123V22.9H10.83V18.073Z" fill="white"/>
</g>
<defs>
<clipPath id="clip0_121_70">
<rect width="28" height="28" fill="white"/>
</clipPath>
</defs>
</svg>
