<svg width="24" height="27" viewBox="0 0 24 27" fill="none" xmlns="http://www.w3.org/2000/svg">
<path d="M12 20.0484C11.2044 20.0484 10.4413 19.7844 9.87868 19.3144C9.31607 18.8444 9 18.207 9 17.5423C9 16.1515 10.335 15.0363 12 15.0363C12.7956 15.0363 13.5587 15.3003 14.1213 15.7703C14.6839 16.2403 15 16.8777 15 17.5423C15 18.207 14.6839 18.8444 14.1213 19.3144C13.5587 19.7844 12.7956 20.0484 12 20.0484ZM21 23.8075V11.2772H3V23.8075H21ZM21 8.77117C21.7956 8.77117 22.5587 9.0352 23.1213 9.50518C23.6839 9.97516 24 10.6126 24 11.2772V23.8075C24 24.4721 23.6839 25.1095 23.1213 25.5795C22.5587 26.0495 21.7956 26.3135 21 26.3135H3C2.20435 26.3135 1.44129 26.0495 0.87868 25.5795C0.31607 25.1095 0 24.4721 0 23.8075V11.2772C0 9.88637 1.335 8.77117 3 8.77117H4.5V6.26512C4.5 4.60351 5.29018 3.00995 6.6967 1.83501C8.10322 0.660074 10.0109 0 12 0C12.9849 0 13.9602 0.162052 14.8701 0.476904C15.7801 0.791756 16.6069 1.25324 17.3033 1.83501C17.9997 2.41678 18.5522 3.10745 18.9291 3.86757C19.306 4.62769 19.5 5.44238 19.5 6.26512V8.77117H21ZM12 2.50605C10.8065 2.50605 9.66193 2.90209 8.81802 3.60706C7.97411 4.31202 7.5 5.26816 7.5 6.26512V8.77117H16.5V6.26512C16.5 5.26816 16.0259 4.31202 15.182 3.60706C14.3381 2.90209 13.1935 2.50605 12 2.50605Z" fill="white"/>
</svg>
