<svg width="16" height="16" viewBox="0 0 16 16" fill="none" xmlns="http://www.w3.org/2000/svg">
<path d="M8.02621 1.33353C4.38621 1.33353 1.41954 4.3002 1.41954 7.9402C1.41954 9.10687 1.72621 10.2402 2.29954 11.2402L1.36621 14.6669L4.86621 13.7469C5.83288 14.2735 6.91954 14.5535 8.02621 14.5535C11.6662 14.5535 14.6329 11.5869 14.6329 7.94687C14.6329 6.1802 13.9462 4.5202 12.6995 3.27353C12.0883 2.65627 11.3602 2.16684 10.5579 1.83377C9.75554 1.5007 8.89493 1.33065 8.02621 1.33353ZM8.03288 2.44687C9.49954 2.44687 10.8729 3.0202 11.9129 4.0602C12.4231 4.57054 12.8277 5.17654 13.1034 5.84348C13.3791 6.51042 13.5205 7.22519 13.5195 7.94687C13.5195 10.9735 11.0529 13.4335 8.02621 13.4335C7.03954 13.4335 6.07288 13.1735 5.23288 12.6669L5.03288 12.5535L2.95288 13.1002L3.50621 11.0735L3.37288 10.8602C2.82257 9.9858 2.53132 8.97335 2.53288 7.9402C2.53954 4.91353 4.99954 2.44687 8.03288 2.44687ZM5.68621 4.88687C5.57954 4.88687 5.39954 4.92687 5.24621 5.09353C5.09954 5.2602 4.66621 5.66687 4.66621 6.47353C4.66621 7.28687 5.25954 8.06687 5.33288 8.1802C5.42621 8.29353 6.50621 9.9602 8.16621 10.6669C8.55954 10.8469 8.86621 10.9469 9.10621 11.0202C9.49954 11.1469 9.85954 11.1269 10.1462 11.0869C10.4662 11.0402 11.1195 10.6869 11.2595 10.3002C11.3995 9.91353 11.3995 9.58687 11.3595 9.51353C11.3129 9.44687 11.2062 9.40687 11.0395 9.33353C10.8729 9.2402 10.0595 8.8402 9.91288 8.78687C9.75954 8.73353 9.66621 8.70687 9.53954 8.86687C9.43288 9.03353 9.11288 9.40687 9.01954 9.51353C8.91954 9.62687 8.82621 9.6402 8.66621 9.5602C8.49288 9.47353 7.95954 9.3002 7.33288 8.7402C6.83954 8.3002 6.51288 7.7602 6.41288 7.59353C6.33288 7.43353 6.40621 7.33353 6.48621 7.2602C6.55954 7.18687 6.66621 7.06687 6.73288 6.96687C6.81954 6.87353 6.84621 6.8002 6.89954 6.69353C6.95288 6.5802 6.92621 6.48687 6.88621 6.40687C6.84621 6.33353 6.51288 5.50687 6.37288 5.1802C6.23954 4.8602 6.10621 4.9002 5.99954 4.89353C5.90621 4.89353 5.79954 4.88687 5.68621 4.88687Z" fill="white"/>
</svg>
