<svg width="19" height="19" viewBox="0 0 19 19" fill="none" xmlns="http://www.w3.org/2000/svg">
<path d="M3.16699 6.33317C3.16699 5.49332 3.50062 4.68786 4.09449 4.094C4.68835 3.50013 5.49381 3.1665 6.33366 3.1665H12.667C13.5068 3.1665 14.3123 3.50013 14.9062 4.094C15.5 4.68786 15.8337 5.49332 15.8337 6.33317V12.6665C15.8337 13.5064 15.5 14.3118 14.9062 14.9057C14.3123 15.4995 13.5068 15.8332 12.667 15.8332H6.33366C5.49381 15.8332 4.68835 15.4995 4.09449 14.9057C3.50062 14.3118 3.16699 13.5064 3.16699 12.6665V6.33317Z" stroke="white" stroke-width="1.25" stroke-linecap="round" stroke-linejoin="round"/>
<path d="M13.0625 5.9375V5.94542M7.125 9.5C7.125 10.1299 7.37522 10.734 7.82062 11.1794C8.26602 11.6248 8.87011 11.875 9.5 11.875C10.1299 11.875 10.734 11.6248 11.1794 11.1794C11.6248 10.734 11.875 10.1299 11.875 9.5C11.875 8.87011 11.6248 8.26602 11.1794 7.82062C10.734 7.37522 10.1299 7.125 9.5 7.125C8.87011 7.125 8.26602 7.37522 7.82062 7.82062C7.37522 8.26602 7.125 8.87011 7.125 9.5Z" stroke="white" stroke-linecap="round" stroke-linejoin="round"/>
</svg>
